<svg xmlns="http://www.w3.org/2000/svg" viewBox="0 0 32 32" width="32" height="32">
  <rect width="32" height="32" rx="8" fill="#4F46E5" />
  <g fill="none" stroke="#ffffff" stroke-width="1.8" stroke-linecap="round" stroke-linejoin="round">
    <path d="M16 14a2 2 0 0 1 2 2c0 3-.5 6-1.4 8.4" />
    <path d="M11.5 9.6A7 7 0 0 1 23 16c0 1.4-.1 2.8-.4 4.1" />
    <path d="M9 16a7 7 0 0 1 1-3.5" />
    <path d="M9.3 21.5c.5-1.6.7-3.4.7-5.5a6 6 0 0 1 .4-2.1" />
    <path d="M13 25c.9-1.7 1.3-4 1.3-6.6a2 2 0 0 1 .2-1.2" />
  </g>
</svg>
